# xmcd CD database file
#
# Track frame offsets:
#	150
#	17093
#	46760
#	95892
#	118957
#	149679
#	163737
#	187600
#	208407
#	233073
#	259219
#	282247
#	290514
#	318344
#
# Disc length: 4593 seconds
#
# Revision: 0
# Processed by: cddbd v1.5.2PL0 Copyright (c) Steve Scherf et al.
# Submitted via: CDex 1.51
#
DISCID=d711ef0e
DTITLE=Joel Fadness - Dynokaleido
DYEAR=2006
DGENRE=New Age
TTITLE0=Freshfry
TTITLE1=Phunarp
TTITLE2=Bafa Qo
TTITLE3=Gritdog
TTITLE4=Mantha
TTITLE5=Kant
TTITLE6=No Cho
TTITLE7=Romper
TTITLE8=Tangle
TTITLE9=Boonga
TTITLE10=Omni
TTITLE11=Trina
TTITLE12=Woo
TTITLE13=Napse
EXTD=YEAR: 2006
EXTT0=
EXTT1=
EXTT2=
EXTT3=
EXTT4=
EXTT5=
EXTT6=
EXTT7=
EXTT8=
EXTT9=
EXTT10=
EXTT11=
EXTT12=
EXTT13=
PLAYORDER=
